{"title":"Rise of the Dead 2007 DVDRip Xvid BigPerm LKRG","uid":6139847,"size":672138306,"categoryP":"video","categoryS":"movies","magnet":"?xt=urn:btih:2a875b772c061d10d7edcbd203975f42c255d7e2&amp;dn=Rise+of+the+Dead+2007+DVDRip+Xvid+BigPerm+LKRG&amp;tr=udp%3A%2F%2Ftracker.openbittorrent.com%3A80&amp;tr=udp%3A%2F%2Fopen.demonii.com%3A1337&amp;tr=udp%3A%2F%2Ftracker.coppersurfer.tk%3A6969&amp;tr=udp%3A%2F%2Fexodus.desync.com%3A6969","seeders":0,"leechers":1,"uploader":".BONE.","files":2,"time":1296461458,"description":"\nPlot\n\nIn the sleepy small town of Dudley, Ohio, a terrifying future awaits. Laura\nChilds (Erin Wilk) is almost raped by a normal lawyer who appears to have gone crazy...\n\n\nCast\n\nErin Wilk ... Laura Childs\nStephen Seidel ... Jack Walther\nPeter Blitzer ... Sheriff Brown\nChris Ferry ... Deputy Greer\nMatt Regney ... Rick Gerber\nVickie Myers ... Catherine Myers\nJaime Whitlock ... Amber West\nEmily Ackerman ... Barbara Clemens\nDoug Sobon ... Hank Clemens\nBrooke Delaney ... Sally Sherman\nPatrick Pope ... Sam Sherman\n &lt;a href=&quot;\nhttp://www.imdb.com/title/tt1116047/&quot; rel=&quot;nofollow&quot; target=&quot;_NEW&quot;&gt;\nhttp://www.imdb.com/title/tt1116047/&lt;/a&gt;\n\nGeneral\nComplete name : Rise of The Dead 2007 DVDRip Xvid BigPerm LKRG\\RoTD_LKRG.avi\nFormat : AVI\nFormat/Info : Audio Video Interleave\nFile size : 641 MiB\nDuration : 1h 11mn\nOverall bit rate : 1 251 Kbps\n\nVideo\nID : 0\nFormat : MPEG-4 Visual\nFormat profile : Advanced Simple@L5\nFormat settings, BVOP : Yes\nFormat settings, QPel : No\nFormat settings, GMC : No warppoints\nFormat settings, Matrix : Default (H.263)\nCodec ID : XVID\nCodec ID/Hint : XviD\nDuration : 1h 11mn\nBit rate : 1 053 Kbps\nWidth : 704 pixels\nHeight : 396 pixels\nDisplay aspect ratio : 16:9\nFrame rate : 29.970 fps\nColor space : YUV\nChroma subsampling : 4:2:0\nBit depth : 8 bits\nScan type : Progressive\nCompression mode : Lossy\nBits/(Pixel*Frame) : 0.126\nStream size : 539 MiB (84%)\nWriting library : XviD 1.2.1 (UTC 2008-12-04)\n\nAudio\nID : 1\nFormat : AC-3\nFormat/Info : Audio Coding 3\nMode extension : CM (complete main)\nCodec ID : 2000\nDuration : 1h 11mn\nBit rate mode : Constant\nBit rate : 192 Kbps\nChannel(s) : 2 channels\nChannel positions : Front: L R\nSampling rate : 48.0 KHz\nBit depth : 16 bits\nCompression mode : Lossy\nVideo delay : 33ms\nStream size : 98.3 MiB (15%)\nAlignment : Split accross interleaves\nInterleave, duration : 500 ms (14.98 video frames)\nInterleave, preload duration : 500 ms\n &lt;a href=&quot;\nhttp://www.grinshare.com/img/KH1442.png&quot; rel=&quot;nofollow&quot; target=&quot;_NEW&quot;&gt;\nhttp://www.grinshare.com/img/KH1442.png&lt;/a&gt;\n &lt;a href=&quot;\nhttp://www.grinshare.com/img/M4G4OQ.png&quot; rel=&quot;nofollow&quot; target=&quot;_NEW&quot;&gt;\nhttp://www.grinshare.com/img/M4G4OQ.png&lt;/a&gt;\n &lt;a href=&quot;\nhttp://www.grinshare.com/img/7YWDFI.png&quot; rel=&quot;nofollow&quot; target=&quot;_NEW&quot;&gt;\nhttp://www.grinshare.com/img/7YWDFI.png&lt;/a&gt;\n &lt;a href=&quot;\nhttp://www.grinshare.com/img/GIT10Z.png&quot; rel=&quot;nofollow&quot; target=&quot;_NEW&quot;&gt;\nhttp://www.grinshare.com/img/GIT10Z.png&lt;/a&gt;","torrent":{"xt":"urn:btih:2a875b772c061d10d7edcbd203975f42c255d7e2","amp;dn":"Rise+of+the+Dead+2007+DVDRip+Xvid+BigPerm+LKRG","amp;tr":["udp%3A%2F%2Ftracker.openbittorrent.com%3A80","udp%3A%2F%2Fopen.demonii.com%3A1337","udp%3A%2F%2Ftracker.coppersurfer.tk%3A6969","udp%3A%2F%2Fexodus.desync.com%3A6969"],"infoHash":"2a875b772c061d10d7edcbd203975f42c255d7e2","infoHashBuffer":{"type":"Buffer","data":[42,135,91,119,44,6,29,16,215,237,203,210,3,151,95,66,194,85,215,226]},"announce":[],"urlList":[]}}